<svg id="Layer_1" enable-background="new 0 0 512 512" height="512" viewBox="0 0 512 512" width="512" xmlns="http://www.w3.org/2000/svg"><g><g><g><path d="m464 376h-432v-208c0-17.673 14.327-32 32-32h368c17.673 0 32 14.327 32 32z" fill="#463c4b"/></g><g><path d="m432 376h-400v-208c0-17.673 14.327-32 32-32h336c17.673 0 32 14.327 32 32z" fill="#555a6e"/></g><g><path d="m64 416h368c17.673 0 32-14.327 32-32v-8h-432v8c0 17.673 14.327 32 32 32z" fill="#a5c3dc"/></g><g><path d="m400 416h-336c-17.673 0-32-14.327-32-32v-8h400v8c0 17.673-14.327 32-32 32z" fill="#d7e6f0"/></g><g><path d="m200 416h72v32h-72z" fill="#a5c3dc"/></g><g><path d="m200 432h48v16h-48z" fill="#d7e6f0"/></g><g><path d="m312 472h-160v-8c0-8.837 7.163-16 16-16h128c8.837 0 16 7.163 16 16z" fill="#d7e6f0"/></g><g><path d="m312 472h-48v-8c0-8.837 7.163-16 16-16h16c8.837 0 16 7.163 16 16z" fill="#a5c3dc"/></g></g><g><g><g><path d="m464 344h-144c-8.837 0-16-7.163-16-16v-272c0-8.837 7.163-16 16-16h144c8.837 0 16 7.163 16 16v272c0 8.837-7.163 16-16 16z" fill="#d7e6f0"/></g><g><path d="m440 320h-96c-8.837 0-16-7.163-16-16v-208c0-8.837 7.163-16 16-16h96c8.837 0 16 7.163 16 16v208c0 8.837-7.163 16-16 16z" fill="#289bc3"/></g><g><path d="m404 64h-24c-2.209 0-4-1.791-4-4 0-2.209 1.791-4 4-4h24c2.209 0 4 1.791 4 4 0 2.209-1.791 4-4 4z" fill="#555a6e"/></g></g><g><path d="m424 200h-64c-4.418 0-8-3.582-8-8v-80c0-4.418 3.582-8 8-8h64c4.418 0 8 3.582 8 8v80c0 4.418-3.582 8-8 8z" fill="#00d2d2"/></g><g><path d="m376 248h-16c-4.418 0-8-3.582-8-8v-16c0-4.418 3.582-8 8-8h16c4.418 0 8 3.582 8 8v16c0 4.418-3.582 8-8 8z" fill="#00d2d2"/></g><g><path d="m424 296h-64c-4.418 0-8-3.582-8-8v-16c0-4.418 3.582-8 8-8h64c4.418 0 8 3.582 8 8v16c0 4.418-3.582 8-8 8z" fill="#ff8caf"/></g><g><path d="m424 248h-16c-4.418 0-8-3.582-8-8v-16c0-4.418 3.582-8 8-8h16c4.418 0 8 3.582 8 8v16c0 4.418-3.582 8-8 8z" fill="#00d2d2"/></g></g><g><path d="m120 308c-3.071 0-6.142-1.172-8.485-3.515l-40-40c-4.686-4.687-4.686-12.284 0-16.971l40-40c4.687-4.686 12.284-4.686 16.971 0 4.686 4.687 4.686 12.284 0 16.971l-31.515 31.515 31.515 31.515c4.686 4.687 4.686 12.284 0 16.971-2.344 2.342-5.415 3.514-8.486 3.514z" fill="#d7e6f0"/></g><g><path d="m232 308c-3.071 0-6.142-1.172-8.485-3.515-4.686-4.687-4.686-12.284 0-16.971l31.514-31.514-31.515-31.515c-4.686-4.687-4.686-12.284 0-16.971 4.687-4.686 12.284-4.686 16.971 0l40 40c4.687 4.687 4.687 12.284 0 16.971l-40 40c-2.343 2.343-5.414 3.515-8.485 3.515z" fill="#d7e6f0"/></g><g><path d="m159.996 308.003c-1.483 0-2.991-.276-4.453-.861-6.153-2.461-9.146-9.445-6.685-15.599l32-80c2.461-6.153 9.444-9.147 15.598-6.685 6.153 2.461 9.146 9.445 6.685 15.599l-32 80c-1.876 4.691-6.383 7.546-11.145 7.546z" fill="#d7e6f0"/></g></g></svg>